<mxfile host="app.diagrams.net" modified="2024-06-20T01:25:16.545Z" agent="Mozilla/5.0 (X11; Linux x86_64; rv:127.0) Gecko/20100101 Firefox/127.0" version="24.5.5" etag="W8-W-SAsOARzEiFy3pLc" type="github">
  <diagram name="PÃ¡gina-1" id="haApap7FiReqCyNfZDy5">
    <mxGraphModel>
      <root>
        <mxCell id="0" />
        <mxCell id="1" parent="0" />
      </root>
    </mxGraphModel>
  </diagram>
</mxfile>
